<svg version="1.1" id="Layer_1" xmlns="http://www.w3.org/2000/svg" xmlns:xlink="http://www.w3.org/1999/xlink" x="0px" y="0px"
	 width="100%" viewBox="0 0 92 100" enable-background="new 0 0 92 100" xml:space="preserve">
<path fill="#E3E2E4" opacity="1.000000" stroke="none" 
	d="
M1.000000,49.000000 
	C1.000000,33.019146 1.000000,17.038294 1.000000,1.028720 
	C31.610800,1.028720 62.221634,1.028720 92.916229,1.028720 
	C92.916229,34.237411 92.916229,67.475105 92.916229,100.856400 
	C62.333786,100.856400 31.666996,100.856400 1.000000,100.856400 
	C1.000000,89.911034 1.000000,78.924179 1.194359,67.804779 
	C2.127223,67.526955 2.865728,67.381660 3.644904,67.536652 
	C3.794655,68.224815 3.903736,68.612694 3.804706,69.159973 
	C4.014792,69.924721 4.432990,70.530090 4.846291,71.464249 
	C5.130390,72.576973 5.419387,73.360893 5.806446,74.445175 
	C6.310612,75.482941 6.716717,76.220360 7.115351,77.271896 
	C7.642791,78.188118 8.177703,78.790207 8.806617,79.713959 
	C10.908992,82.371712 12.917366,84.707809 14.992516,87.350662 
	C15.711873,88.094337 16.364454,88.531250 17.168737,89.188904 
	C17.773752,89.680244 18.227064,89.950836 18.814676,90.503227 
	C19.643789,91.158791 20.338604,91.532555 21.313946,92.109207 
	C23.912075,93.330971 26.229675,94.349838 28.722164,95.625862 
	C29.630360,96.134003 30.363667,96.384995 31.477640,96.770447 
	C37.096359,97.310852 42.398750,98.439240 47.559711,97.979591 
	C60.172806,96.856239 69.083946,89.401443 76.520035,79.336731 
	C77.166748,78.445763 77.531754,77.715919 78.106827,76.694855 
	C79.338348,73.402641 80.359787,70.401665 81.664749,67.209534 
	C82.128609,65.963158 82.308929,64.907936 82.587158,63.447178 
	C82.687988,61.377426 82.690903,59.713203 82.808128,57.634567 
	C81.297585,51.476208 79.672737,45.732262 78.004120,39.642818 
	C74.527451,33.030590 70.299255,27.554804 63.266808,24.397135 
	C61.690315,24.375805 60.286419,24.653580 58.660866,25.171005 
	C59.901093,27.307991 61.362965,29.205324 62.931885,31.396709 
	C63.701359,32.108871 64.363792,32.526981 65.172775,33.218475 
	C66.229027,34.320099 67.138725,35.148346 68.085831,36.286129 
	C68.716774,37.119038 69.310303,37.642414 70.020126,38.440208 
	C70.741547,39.481972 71.346695,40.249313 72.012779,41.370514 
	C76.210236,47.914528 76.014519,55.061722 76.442108,62.375568 
	C76.309113,63.173096 76.296692,63.639641 76.001358,64.322983 
	C75.499214,65.696075 75.279984,66.852386 74.953339,68.301041 
	C74.804947,69.210716 74.763954,69.828056 74.426926,70.619263 
	C73.466988,72.201500 72.803093,73.609871 71.924004,75.244797 
	C71.084564,76.532433 70.460327,77.593506 69.523781,78.785614 
	C67.731804,80.575424 66.252129,82.234184 64.463318,83.979263 
	C62.778709,85.122375 61.403244,86.179161 59.713051,87.228119 
	C58.771740,87.737213 58.145157,88.254143 57.151085,88.784775 
	C48.891556,92.199745 40.791981,92.736816 32.307533,90.313599 
	C31.384743,89.813255 30.650064,89.557640 29.648762,89.185226 
	C29.003056,88.989769 28.623978,88.911118 28.113295,88.554642 
	C27.283636,87.995445 26.585583,87.714066 25.628490,87.236954 
	C24.406326,86.568275 23.443205,86.095345 22.341562,85.323715 
	C20.864758,83.922546 19.526474,82.820076 18.012070,81.436180 
	C16.102129,78.805504 14.368306,76.456261 12.674786,73.769928 
	C11.913993,72.152061 11.112897,70.871292 10.293672,69.193481 
	C9.656692,65.537315 9.037842,62.278179 8.561071,58.607933 
	C8.761685,56.453720 8.820220,54.710617 9.152534,52.735531 
	C9.610419,51.333439 9.794524,50.163330 10.048660,48.618088 
	C11.845744,44.535686 13.572797,40.828423 15.590126,36.978077 
	C18.860661,34.220707 21.970242,31.733377 24.739748,28.912201 
	C25.536160,28.100929 25.351688,26.326746 25.616945,24.994049 
	C24.419153,24.775391 23.173941,24.250845 22.037365,24.427052 
	C20.973635,24.591965 20.025042,25.499525 18.712158,26.103102 
	C17.866478,26.711002 17.334415,27.296053 16.498976,27.986416 
	C14.750010,29.654411 13.304420,31.217093 11.559488,32.880466 
	C10.853294,33.660748 10.446444,34.340332 9.816326,35.286003 
	C8.002286,38.642876 6.411512,41.733658 4.577377,44.934700 
	C4.272672,45.690174 4.211329,46.335396 4.019733,47.260254 
	C3.823662,47.944889 3.757843,48.349884 3.309679,48.759441 
	C2.284890,48.842670 1.642445,48.921337 1.000000,49.000000 
M45.510174,16.013912 
	C45.337418,16.013304 45.164658,16.012697 44.642532,15.454757 
	C43.151691,14.732931 41.660854,14.011106 39.479534,13.210906 
	C38.428562,14.580056 37.377586,15.949205 36.460426,17.144028 
	C33.717960,15.468412 31.765467,14.275460 29.812971,13.082509 
	C29.489557,13.493869 29.166142,13.905229 28.842728,14.316588 
	C30.838018,16.552362 32.833309,18.788136 35.057644,21.716078 
	C36.206837,24.115755 37.356030,26.515432 38.342133,29.592897 
	C38.896439,31.061394 39.450745,32.529892 39.986679,34.903305 
	C40.734337,43.749935 38.251606,50.890636 28.752743,54.768921 
	C25.157686,55.377197 21.562632,55.985474 16.851068,56.782665 
	C22.949606,59.901703 27.624866,58.721214 33.000134,56.196629 
	C36.595078,56.060902 40.487053,51.476894 43.543839,55.351631 
	C46.558773,59.173298 43.069286,63.062256 41.130287,66.628250 
	C40.516003,67.757973 39.891449,68.886200 39.357773,70.054482 
	C38.857601,71.149406 38.471416,72.296394 38.035065,73.420471 
	C52.189053,62.738804 52.606239,47.470161 52.942757,31.374887 
	C52.577614,30.261593 52.212471,29.148298 51.857796,27.310444 
	C51.736755,26.598652 51.615715,25.886862 51.730968,24.419523 
	C51.140465,22.282501 50.549961,20.145479 49.954056,17.362679 
	C49.883549,16.938667 49.813038,16.514654 49.892105,15.284237 
	C49.334450,12.507762 48.776794,9.731287 48.219139,6.954812 
	C47.852966,6.995225 47.486794,7.035639 47.120621,7.076054 
	C46.790272,10.077109 46.459923,13.078166 46.086742,16.038240 
	C46.086742,16.038240 46.027641,16.042824 45.510174,16.013912 
z"/>
<path fill="#A793BC" opacity="1.000000" stroke="none" 
	d="
M3.604234,67.236374 
	C2.865728,67.381660 2.127223,67.526955 1.194359,67.336121 
	C1.000000,61.311958 1.000000,55.623920 1.000000,49.467941 
	C1.642445,48.921337 2.284890,48.842670 3.405784,49.220947 
	C3.895180,52.440750 3.906127,55.203617 3.910206,58.427483 
	C3.803636,61.671116 3.703935,64.453743 3.604234,67.236374 
z"/>
<path fill="#7C569B" opacity="1.000000" stroke="none" 
	d="
M7.122823,76.957771 
	C6.716717,76.220360 6.310612,75.482941 6.111132,74.243469 
	C7.556855,73.157814 8.795954,72.574226 10.264406,72.167702 
	C11.207333,72.932182 11.920907,73.519592 12.634482,74.107010 
	C14.368306,76.456261 16.102129,78.805504 17.987823,81.814423 
	C19.586493,83.523529 21.033287,84.572968 22.480083,85.622406 
	C23.443205,86.095345 24.406326,86.568275 25.736038,87.521057 
	C26.816719,88.278091 27.530809,88.555275 28.244900,88.832458 
	C28.623978,88.911118 29.003056,88.989769 29.759872,89.496765 
	C30.923622,90.136177 31.709633,90.347252 32.495644,90.558327 
	C40.791981,92.736816 48.891556,92.199745 57.495850,88.823425 
	C58.814667,88.310898 59.421227,87.773422 60.027786,87.235947 
	C61.403244,86.179161 62.778709,85.122375 64.830139,83.979416 
	C66.949440,82.147026 68.392761,80.400803 69.836075,78.654579 
	C70.460327,77.593506 71.084564,76.532433 72.264221,75.166779 
	C73.454079,73.389931 74.088524,71.917664 74.722961,70.445389 
	C74.763954,69.828056 74.804947,69.210716 75.271774,68.235168 
	C75.893166,66.620026 76.088722,65.363106 76.284271,64.106186 
	C76.296692,63.639641 76.309113,63.173096 76.724136,62.242180 
	C78.982437,60.534866 80.838127,59.291924 82.693825,58.048981 
	C82.690903,59.713203 82.687988,61.377426 82.284943,63.599754 
	C81.716949,65.238800 81.549088,66.319740 81.381218,67.400681 
	C80.359787,70.401665 79.338348,73.402641 77.771271,76.776878 
	C76.896538,77.932709 76.567429,78.715286 76.238319,79.497864 
	C69.083946,89.401443 60.172806,96.856239 47.559711,97.979591 
	C42.398750,98.439240 37.096359,97.310852 31.362450,96.468567 
	C30.093487,95.811058 29.320383,95.589882 28.547277,95.368713 
	C26.229675,94.349838 23.912075,93.330971 21.240685,91.784843 
	C20.151390,90.912209 19.415884,90.566818 18.680378,90.221428 
	C18.227064,89.950836 17.773752,89.680244 17.117012,88.871407 
	C16.250973,87.903404 15.588356,87.473656 14.925741,87.043907 
	C12.917366,84.707809 10.908992,82.371712 8.859859,79.372520 
	C8.253675,78.125542 7.688249,77.541656 7.122823,76.957771 
z"/>
<path fill="#8566A7" opacity="1.000000" stroke="none" 
	d="
M52.751431,32.110840 
	C52.606239,47.470161 52.189053,62.738804 38.035065,73.420471 
	C38.471416,72.296394 38.857601,71.149406 39.357773,70.054482 
	C39.891449,68.886200 40.516003,67.757973 41.130287,66.628250 
	C43.069286,63.062256 46.558773,59.173298 43.543839,55.351631 
	C40.487053,51.476894 36.595078,56.060902 32.245735,56.106735 
	C30.833115,55.587772 30.174891,55.158707 29.516666,54.729637 
	C38.251606,50.890636 40.734337,43.749935 40.224915,34.270554 
	C40.636002,33.091839 40.808849,32.545876 41.438622,31.999924 
	C44.949493,31.991829 48.003437,31.983725 51.340233,31.997860 
	C51.999199,32.050346 52.375317,32.080593 52.751431,32.110840 
z"/>
<path fill="#8568AB" opacity="1.000000" stroke="none" 
	d="
M51.057384,31.975620 
	C48.003437,31.983725 44.949493,31.991829 41.315971,31.726158 
	C39.992672,30.606625 39.248947,29.760868 38.505226,28.915110 
	C37.356030,26.515432 36.206837,24.115755 35.274132,21.222496 
	C36.647484,20.446653 37.804352,20.164389 39.211411,20.156300 
	C42.648457,20.284348 45.835316,20.138218 49.057095,20.308502 
	C49.892899,22.141636 50.693787,23.658354 51.494675,25.175070 
	C51.615715,25.886862 51.736755,26.598652 51.626076,27.929104 
	C51.282032,29.690382 51.169708,30.833002 51.057384,31.975620 
z"/>
<path fill="#886CAB" opacity="1.000000" stroke="none" 
	d="
M62.824841,31.102659 
	C61.362965,29.205324 59.901093,27.307991 59.115891,25.195873 
	C61.008171,24.886139 62.223785,24.791189 63.439396,24.696239 
	C70.299255,27.554804 74.527451,33.030590 77.614456,39.656570 
	C75.496323,40.349434 73.724075,40.683048 71.951836,41.016663 
	C71.346695,40.249313 70.741547,39.481972 70.012352,38.109871 
	C69.275009,36.995609 68.661720,36.486103 68.048431,35.976593 
	C67.138725,35.148346 66.229027,34.320099 65.111488,32.897594 
	C64.210716,31.903112 63.517780,31.502886 62.824841,31.102659 
z"/>
<path fill="#8868A6" opacity="1.000000" stroke="none" 
	d="
M72.012779,41.370514 
	C73.724075,40.683048 75.496323,40.349434 77.658234,40.002068 
	C79.672737,45.732262 81.297585,51.476208 82.808128,57.634567 
	C80.838127,59.291924 78.982437,60.534866 76.844711,61.911201 
	C76.014519,55.061722 76.210236,47.914528 72.012779,41.370514 
z"/>
<path fill="#8162A5" opacity="1.000000" stroke="none" 
	d="
M3.917074,57.966484 
	C3.906127,55.203617 3.895180,52.440750 3.788128,49.216377 
	C3.757843,48.349884 3.823662,47.944889 4.273298,47.081841 
	C4.711657,46.024002 4.766198,45.424225 4.820738,44.824444 
	C6.411512,41.733658 8.002286,38.642876 10.139013,35.288055 
	C11.113547,34.984451 11.542130,34.944881 12.167716,35.175423 
	C13.343096,36.004074 14.321473,36.562618 15.299850,37.121162 
	C13.572797,40.828423 11.845744,44.535686 9.724409,48.688404 
	C9.179668,50.411747 9.029211,51.689632 8.878754,52.967518 
	C8.820220,54.710617 8.761685,56.453720 8.240666,58.591064 
	C6.491146,58.645699 5.204110,58.306091 3.917074,57.966484 
z"/>
<path fill="#866AAB" opacity="1.000000" stroke="none" 
	d="
M15.590126,36.978077 
	C14.321473,36.562618 13.343096,36.004074 12.165302,34.822067 
	C11.930202,33.725655 11.894517,33.252716 11.858831,32.779774 
	C13.304420,31.217093 14.750010,29.654411 16.829987,27.986052 
	C17.984842,27.280333 18.505310,26.680292 19.025776,26.080254 
	C20.025042,25.499525 20.973635,24.591965 22.037365,24.427052 
	C23.173941,24.250845 24.419153,24.775391 25.616945,24.994049 
	C25.351688,26.326746 25.536160,28.100929 24.739748,28.912201 
	C21.970242,31.733377 18.860661,34.220707 15.590126,36.978077 
z"/>
<path fill="#7C589E" opacity="1.000000" stroke="none" 
	d="
M3.910205,58.427483 
	C5.204110,58.306091 6.491146,58.645699 8.098587,59.002174 
	C9.037842,62.278179 9.656692,65.537315 10.196494,69.588211 
	C10.089983,70.916855 10.062520,71.453751 10.035055,71.990639 
	C8.795954,72.574226 7.556855,73.157814 6.013070,73.943108 
	C5.419387,73.360893 5.130390,72.576973 4.909987,71.147079 
	C4.656659,70.000931 4.334737,69.500755 4.012815,69.000580 
	C3.903736,68.612694 3.794655,68.224815 3.644904,67.536652 
	C3.703935,64.453743 3.803636,61.671116 3.910205,58.427483 
z"/>
<path fill="#8A70B0" opacity="1.000000" stroke="none" 
	d="
M49.022175,19.992088 
	C45.835316,20.138218 42.648457,20.284348 39.196877,19.773684 
	C39.344776,17.174353 39.757393,15.231816 40.170013,13.289280 
	C41.660854,14.011106 43.151691,14.732931 44.892639,15.919216 
	C45.437714,16.270060 45.732677,16.156443 46.027641,16.042824 
	C46.027641,16.042824 46.086742,16.038240 46.470268,16.039948 
	C47.816704,16.057983 48.779613,16.074312 49.742527,16.090643 
	C49.813038,16.514654 49.883549,16.938667 49.736389,17.868336 
	C49.353207,18.913359 49.187691,19.452724 49.022175,19.992088 
z"/>
<path fill="#B2A3C7" opacity="1.000000" stroke="none" 
	d="
M39.824776,13.250093 
	C39.757393,15.231816 39.344776,17.174353 38.946690,19.499508 
	C37.804352,20.164389 36.647484,20.446653 35.159607,20.876413 
	C32.833309,18.788136 30.838018,16.552362 28.842728,14.316588 
	C29.166142,13.905229 29.489557,13.493869 29.812971,13.082509 
	C31.765467,14.275460 33.717960,15.468412 36.460426,17.144028 
	C37.377586,15.949205 38.428562,14.580056 39.824776,13.250093 
z"/>
<path fill="#AD9AC0" opacity="1.000000" stroke="none" 
	d="
M29.134705,54.749279 
	C30.174891,55.158707 30.833115,55.587772 31.863136,56.155617 
	C27.624866,58.721214 22.949606,59.901703 16.851068,56.782665 
	C21.562632,55.985474 25.157686,55.377197 29.134705,54.749279 
z"/>
<path fill="#A28EBD" opacity="1.000000" stroke="none" 
	d="
M49.817314,15.687440 
	C48.779613,16.074312 47.816704,16.057983 46.491680,16.060438 
	C46.459923,13.078166 46.790272,10.077109 47.120621,7.076054 
	C47.486794,7.035639 47.852966,6.995225 48.219139,6.954812 
	C48.776794,9.731287 49.334450,12.507762 49.817314,15.687440 
z"/>
<path fill="#A28EBD" opacity="1.000000" stroke="none" 
	d="
M49.057095,20.308504 
	C49.187691,19.452724 49.353207,18.913359 49.739090,18.191223 
	C50.549961,20.145479 51.140465,22.282501 51.612823,24.797297 
	C50.693787,23.658354 49.892899,22.141636 49.057095,20.308504 
z"/>
<path fill="#8868A6" opacity="1.000000" stroke="none" 
	d="
M69.523773,78.785614 
	C68.392761,80.400803 66.949440,82.147026 65.139290,83.893097 
	C66.252129,82.234184 67.731804,80.575424 69.523773,78.785614 
z"/>
<path fill="#9A82B3" opacity="1.000000" stroke="none" 
	d="
M38.423679,29.254004 
	C39.248947,29.760868 39.992672,30.606625 40.859043,31.726149 
	C40.808849,32.545876 40.636002,33.091839 40.234104,33.818092 
	C39.450745,32.529892 38.896439,31.061394 38.423679,29.254004 
z"/>
<path fill="#967AAE" opacity="1.000000" stroke="none" 
	d="
M22.341564,85.323715 
	C21.033287,84.572968 19.586493,83.523529 18.163944,82.095848 
	C19.526474,82.820076 20.864758,83.922546 22.341564,85.323715 
z"/>
<path fill="#A28EBD" opacity="1.000000" stroke="none" 
	d="
M51.340233,31.997860 
	C51.169708,30.833002 51.282032,29.690382 51.620842,28.291382 
	C52.212471,29.148298 52.577614,30.261593 52.847092,31.742863 
	C52.375317,32.080593 51.999199,32.050346 51.340233,31.997860 
z"/>
<path fill="#9A82B3" opacity="1.000000" stroke="none" 
	d="
M9.152534,52.735531 
	C9.029211,51.689632 9.179668,50.411747 9.654377,49.063545 
	C9.794524,50.163330 9.610419,51.333439 9.152534,52.735531 
z"/>
<path fill="#9C86B8" opacity="1.000000" stroke="none" 
	d="
M63.266808,24.397135 
	C62.223785,24.791189 61.008171,24.886139 59.337540,24.956221 
	C60.286419,24.653580 61.690315,24.375805 63.266808,24.397135 
z"/>
<path fill="#8868A6" opacity="1.000000" stroke="none" 
	d="
M76.001358,64.322983 
	C76.088722,65.363106 75.893166,66.620026 75.379181,67.942818 
	C75.279984,66.852386 75.499214,65.696075 76.001358,64.322983 
z"/>
<path fill="#967AAE" opacity="1.000000" stroke="none" 
	d="
M10.264407,72.167702 
	C10.062520,71.453751 10.089983,70.916855 10.214624,69.985245 
	C11.112897,70.871292 11.913993,72.152061 12.674785,73.769928 
	C11.920907,73.519592 11.207333,72.932182 10.264407,72.167702 
z"/>
<path fill="#8868A6" opacity="1.000000" stroke="none" 
	d="
M74.426926,70.619263 
	C74.088524,71.917664 73.454079,73.389931 72.479416,74.940216 
	C72.803093,73.609871 73.466988,72.201500 74.426926,70.619263 
z"/>
<path fill="#9A82B3" opacity="1.000000" stroke="none" 
	d="
M81.664749,67.209534 
	C81.549088,66.319740 81.716949,65.238800 82.187035,64.005287 
	C82.308929,64.907936 82.128609,65.963158 81.664749,67.209534 
z"/>
<path fill="#967AAE" opacity="1.000000" stroke="none" 
	d="
M18.814676,90.503227 
	C19.415884,90.566818 20.151390,90.912209 20.960155,91.581955 
	C20.338604,91.532555 19.643789,91.158791 18.814676,90.503227 
z"/>
<path fill="#967AAE" opacity="1.000000" stroke="none" 
	d="
M32.307533,90.313599 
	C31.709633,90.347252 30.923622,90.136177 30.026499,89.613571 
	C30.650064,89.557640 31.384743,89.813255 32.307533,90.313599 
z"/>
<path fill="#8868A6" opacity="1.000000" stroke="none" 
	d="
M59.713055,87.228119 
	C59.421227,87.773422 58.814667,88.310898 57.863342,88.809723 
	C58.145157,88.254143 58.771740,87.737213 59.713055,87.228119 
z"/>
<path fill="#967AAE" opacity="1.000000" stroke="none" 
	d="
M28.722164,95.625862 
	C29.320383,95.589882 30.093487,95.811058 30.981783,96.334106 
	C30.363667,96.384995 29.630360,96.134003 28.722164,95.625862 
z"/>
<path fill="#967AAE" opacity="1.000000" stroke="none" 
	d="
M28.113297,88.554642 
	C27.530809,88.555275 26.816719,88.278091 25.995079,87.716797 
	C26.585583,87.714066 27.283636,87.995445 28.113297,88.554642 
z"/>
<path fill="#967AAE" opacity="1.000000" stroke="none" 
	d="
M14.992516,87.350662 
	C15.588356,87.473656 16.250973,87.903404 16.965313,88.650658 
	C16.364454,88.531250 15.711873,88.094337 14.992516,87.350662 
z"/>
<path fill="#A793BC" opacity="1.000000" stroke="none" 
	d="
M3.804704,69.159973 
	C4.334737,69.500755 4.656659,70.000931 4.914885,70.818283 
	C4.432990,70.530090 4.014792,69.924721 3.804704,69.159973 
z"/>
<path fill="#8868A6" opacity="1.000000" stroke="none" 
	d="
M76.520035,79.336731 
	C76.567429,78.715286 76.896538,77.932709 77.561195,77.068100 
	C77.531754,77.715919 77.166748,78.445763 76.520035,79.336731 
z"/>
<path fill="#967AAE" opacity="1.000000" stroke="none" 
	d="
M7.115352,77.271896 
	C7.688249,77.541656 8.253675,78.125542 8.765858,79.050858 
	C8.177703,78.790207 7.642791,78.188118 7.115352,77.271896 
z"/>
<path fill="#9C86B8" opacity="1.000000" stroke="none" 
	d="
M11.559488,32.880466 
	C11.894517,33.252716 11.930202,33.725655 11.968300,34.551956 
	C11.542130,34.944881 11.113547,34.984451 10.362279,35.021973 
	C10.446444,34.340332 10.853294,33.660748 11.559488,32.880466 
z"/>
<path fill="#9C86B8" opacity="1.000000" stroke="none" 
	d="
M18.712158,26.103104 
	C18.505310,26.680292 17.984842,27.280333 17.133364,27.880737 
	C17.334415,27.296053 17.866478,26.711002 18.712158,26.103104 
z"/>
<path fill="#A793BC" opacity="1.000000" stroke="none" 
	d="
M4.577377,44.934700 
	C4.766198,45.424225 4.711657,46.024002 4.403550,46.802200 
	C4.211329,46.335396 4.272672,45.690174 4.577377,44.934700 
z"/>
<path fill="#9C86B8" opacity="1.000000" stroke="none" 
	d="
M68.085831,36.286129 
	C68.661720,36.486103 69.275009,36.995609 69.896072,37.835449 
	C69.310303,37.642414 68.716774,37.119038 68.085831,36.286129 
z"/>
<path fill="#9C86B8" opacity="1.000000" stroke="none" 
	d="
M62.931885,31.396709 
	C63.517780,31.502886 64.210716,31.903112 64.964935,32.624214 
	C64.363792,32.526981 63.701359,32.108871 62.931885,31.396709 
z"/>
<path fill="#B2A3C7" opacity="1.000000" stroke="none" 
	d="
M45.768906,16.028368 
	C45.732677,16.156443 45.437714,16.270060 45.067326,16.197884 
	C45.164658,16.012697 45.337418,16.013304 45.768906,16.028368 
z"/>
</svg>